<?xml version="1.0" encoding="UTF-8"?>
<svg version="1.1" viewBox="0 0 48 48" xmlns="http://www.w3.org/2000/svg" xmlns:xlink="http://www.w3.org/1999/xlink">
<title>#icon/help</title>
<defs>
<path id="a" d="m11.444 40.793l7.193-7.193c1.588 0.888 3.415 1.4 5.363 1.4 1.949 0 3.776-0.512 5.363-1.4l7.194 7.193c-3.508 2.629-7.846 4.207-12.557 4.207-4.71 0-9.049-1.578-12.556-4.207zm-4.236-29.349l7.193 7.193c-0.889 1.588-1.401 3.415-1.401 5.363 0 1.946 0.51 3.771 1.397 5.356l-7.195 7.194c-2.626-3.506-4.202-7.842-4.202-12.55 0-4.71 1.578-9.049 4.208-12.556zm29.342-4.242l-7.194 7.194c-1.586-0.886-3.41-1.396-5.356-1.396-1.945 0-3.769 0.51-5.355 1.396l-7.194-7.194c3.506-2.626 7.842-4.202 12.549-4.202 4.708 0 9.044 1.576 12.55 4.202zm-20.55 16.798c0-4.411 3.589-8 8-8 4.412 0 8 3.589 8 8s-3.588 8-8 8c-4.411 0-8-3.589-8-8zm17.604 5.356c0.886-1.585 1.396-3.41 1.396-5.356 0-1.949-0.512-3.776-1.4-5.363l7.193-7.194c2.629 3.508 4.207 7.847 4.207 12.557 0 4.708-1.576 9.044-4.202 12.55l-7.194-7.194zm-9.604-29.356c-13.255 0-24 10.745-24 24s10.745 24 24 24 24-10.745 24-24-10.745-24-24-24z"/>
</defs>
<g fill="none" fill-rule="evenodd">
<rect width="48" height="48"/>
<mask id="b" fill="white">
<use xlink:href="#a"/>
</mask>
<use fill="#000000" xlink:href="#a"/>
<g fill="#005EB8" mask="url(#b)">
<rect width="48" height="48"/>
</g>
</g>
</svg>
